<?xml version="1.0" standalone="no"?>
<!DOCTYPE svg PUBLIC "-//W3C//DTD SVG 20010904//EN"
 "http://www.w3.org/TR/2001/REC-SVG-20010904/DTD/svg10.dtd">
<svg version="1.0" xmlns="http://www.w3.org/2000/svg"
 width="416.000000pt" height="416.000000pt" viewBox="0 0 416.000000 416.000000"
 preserveAspectRatio="xMidYMid meet">
<metadata>
Created by potrace 1.11, written by Peter Selinger 2001-2013
</metadata>
<g transform="translate(0.000000,416.000000) scale(0.100000,-0.100000)"
fill="#000000" stroke="none">
<path d="M405 3876 c-61 -28 -112 -77 -136 -131 -16 -34 -19 -67 -19 -211 l0
-171 63 -23 c44 -16 75 -36 109 -70 41 -42 48 -57 64 -126 21 -98 15 -254 -21
-499 -14 -93 -25 -174 -25 -178 0 -5 -40 26 -89 67 -49 42 -92 76 -95 76 -3 0
-6 -492 -6 -1092 l0 -1093 24 -50 c25 -55 79 -108 135 -134 33 -15 184 -16
1681 -16 l1645 0 51 27 c58 30 98 73 125 133 15 33 19 67 19 199 l0 159 -66
65 c-83 84 -156 193 -233 352 -57 115 -61 127 -49 152 7 14 25 33 39 42 70 41
142 141 160 222 9 40 17 54 30 54 26 0 50 -11 44 -20 -3 -4 13 -10 35 -12 l40
-4 0 1051 c0 1034 -1 1051 -21 1095 -27 60 -74 107 -134 136 l-50 24 -1117 0
-1118 0 0 -575 c0 -316 4 -575 9 -575 4 0 42 16 83 34 138 64 332 106 493 106
192 0 419 -56 580 -144 78 -43 80 -44 85 -87 7 -52 23 -85 49 -99 13 -6 17
-17 14 -30 -7 -26 13 -50 42 -50 29 0 47 22 43 52 -13 97 177 -108 280 -302
47 -87 107 -253 94 -258 -30 -10 -95 -70 -125 -115 -44 -65 -66 -85 -114 -103
-133 -47 -251 25 -353 217 -62 116 -185 240 -290 291 -107 52 -188 71 -305 72
-123 1 -183 -13 -304 -71 -175 -84 -311 -254 -356 -443 -19 -83 -19 -237 0
-319 46 -191 183 -359 367 -446 104 -50 200 -68 323 -62 244 11 449 142 564
358 82 153 168 223 275 223 85 -1 134 -28 185 -103 38 -55 81 -99 119 -120 15
-9 15 -15 -7 -83 -157 -494 -636 -838 -1167 -838 -333 0 -646 133 -886 377
l-67 68 14 40 c50 140 -34 298 -179 337 -44 12 -47 15 -61 62 -51 172 -50 134
-50 1403 l0 1183 -195 0 c-183 0 -198 -2 -245 -24z"/>
</g>
</svg>
