<?xml version="1.0" standalone="no"?>
<!DOCTYPE svg PUBLIC "-//W3C//DTD SVG 20010904//EN"
 "http://www.w3.org/TR/2001/REC-SVG-20010904/DTD/svg10.dtd">
<svg version="1.0" xmlns="http://www.w3.org/2000/svg"
 width="260.000000pt" height="260.000000pt" viewBox="0 0 260.000000 260.000000"
 preserveAspectRatio="xMidYMid meet">
<metadata>
Created by potrace 1.11, written by Peter Selinger 2001-2013
</metadata>
<g transform="translate(0.000000,260.000000) scale(0.100000,-0.100000)"
fill="#000000" stroke="none">
<path d="M0 1300 l0 -1300 1300 0 1300 0 0 1300 0 1300 -1300 0 -1300 0 0
-1300z m329 934 c20 -25 21 -39 21 -260 0 -129 2 -234 3 -234 2 0 30 10 63 21
89 32 235 31 330 -3 l71 -25 29 60 c39 83 132 174 222 220 94 46 165 61 277
54 100 -5 174 -29 251 -80 50 -32 134 -112 134 -127 0 -7 -194 -170 -203 -170
-2 0 -22 17 -44 39 -76 71 -187 90 -278 47 -95 -45 -147 -125 -147 -226 -2
-187 187 -306 357 -226 63 30 84 53 129 147 93 192 267 303 476 303 341 0 592
-314 515 -643 -71 -301 -396 -482 -684 -381 -30 11 -57 20 -58 20 -2 0 -3
-110 -3 -243 0 -300 9 -282 -146 -282 -94 0 -105 2 -126 23 l-23 23 -3 378 -3
378 -52 -14 c-74 -20 -225 -12 -302 15 -32 12 -61 22 -62 22 -1 0 -16 -27 -33
-61 -41 -81 -139 -178 -221 -218 -158 -77 -320 -78 -475 -1 -95 46 -195 144
-237 231 -56 114 -57 130 -57 683 0 613 -16 556 151 556 104 0 108 -1 128 -26z"/>
<path d="M92 2218 c-19 -19 -17 -970 2 -1059 38 -176 168 -319 338 -370 58
-18 88 -21 174 -17 95 4 110 8 181 43 101 50 185 134 232 230 19 39 35 71 36
73 2 2 21 -6 44 -17 101 -52 252 -63 354 -25 86 31 77 51 78 -177 0 -112 3
-222 8 -244 l7 -40 8 35 c7 31 9 32 16 15 7 -17 9 -18 9 -2 1 10 19 26 48 40
26 12 56 29 65 37 10 8 28 17 41 20 16 4 23 15 27 40 3 19 11 36 18 38 8 1 11
-1 8 -6 -3 -5 6 -14 20 -21 15 -6 23 -7 19 -1 -3 5 1 10 10 10 9 0 13 5 9 11
-4 8 4 9 27 4 27 -5 31 -4 19 5 -11 9 -12 13 -2 17 7 2 19 11 26 19 8 8 19 14
24 14 5 0 19 9 32 20 13 11 19 20 14 20 -5 0 -2 4 6 9 18 12 37 2 19 -11 -9
-5 -3 -6 16 -2 17 4 33 11 36 17 4 5 20 7 35 4 16 -4 23 -4 16 -1 -10 5 -9 10
5 21 17 14 17 14 -2 8 -11 -4 -28 -8 -38 -10 -9 -2 -21 -6 -25 -9 -4 -2 -30 0
-57 5 -28 5 -58 11 -67 12 -9 2 -40 18 -69 37 -119 77 -162 235 -100 364 51
104 141 161 256 160 123 -1 231 -73 267 -179 20 -56 27 -182 13 -205 -18 -27
-30 -46 -53 -83 -13 -20 -33 -39 -44 -43 -16 -5 -17 -8 -7 -14 15 -10 52 7 44
20 -3 5 3 17 14 27 11 9 18 20 15 24 -2 5 9 6 26 4 17 -2 28 1 25 6 -3 5 14
19 39 31 26 12 46 26 46 30 0 4 9 8 20 8 11 0 20 4 20 9 0 5 16 15 35 22 35
13 35 13 35 74 0 207 -157 406 -365 461 -27 8 -84 14 -126 14 -196 0 -356
-105 -450 -295 -33 -68 -54 -97 -87 -122 -120 -91 -281 -77 -382 33 -58 63
-74 105 -74 194 0 62 5 84 26 126 50 95 126 145 236 152 86 6 146 -13 202 -64
l36 -33 84 67 83 66 -52 47 c-127 114 -293 154 -459 110 -140 -37 -261 -138
-318 -266 -21 -46 -33 -64 -44 -61 -8 3 -46 17 -85 30 -121 44 -255 34 -397
-28 -17 -8 -18 8 -18 244 0 154 -4 259 -10 271 -10 17 -22 19 -108 19 -63 0
-102 -4 -110 -12z m611 -708 c165 -83 203 -314 74 -448 -85 -89 -219 -113
-330 -59 -215 106 -210 410 8 514 68 32 177 29 248 -7z m1607 -394 c0 -3 -4
-8 -10 -11 -5 -3 -10 -1 -10 4 0 6 5 11 10 11 6 0 10 -2 10 -4z"/>
<path d="M486 1496 c-96 -36 -166 -134 -166 -235 0 -99 66 -199 156 -237 44
-19 146 -18 192 1 49 21 110 80 133 130 39 83 17 209 -49 278 -61 65 -183 94
-266 63z"/>
<path d="M1929 1486 c-140 -50 -203 -211 -136 -348 87 -176 333 -187 434 -19
57 96 53 193 -12 282 -62 86 -184 122 -286 85z"/>
</g>
</svg>
